<svg width="700" height="300" viewBox="0 0 700 300" fill="none" xmlns="http://www.w3.org/2000/svg">
  <!-- Outer Circle - Green -->
  <circle cx="150" cy="150" r="130" stroke="#22c55e" stroke-width="20" fill="none"/>
  
  <!-- Half circle filled (left side) - Green -->
  <path d="M 150 20 A 130 130 0 0 0 150 280 Z" fill="#22c55e"/>
  
  <!-- Triangular teeth pattern on the right edge of half circle - White -->
  <path d="M 150 50 L 170 60 L 150 70 Z" fill="white"/>
  <path d="M 150 75 L 175 90 L 150 105 Z" fill="white"/>
  <path d="M 150 110 L 180 130 L 150 150 Z" fill="white"/>
  <path d="M 150 155 L 180 175 L 150 195 Z" fill="white"/>
  <path d="M 150 200 L 175 215 L 150 230 Z" fill="white"/>
  <path d="M 150 235 L 170 245 L 150 255 Z" fill="white"/>
  
  <!-- Tree trunk at bottom - Green -->
  <rect x="140" y="250" width="20" height="30" fill="#22c55e"/>
  
  <!-- Park M Text - White -->
  <text x="320" y="200" font-family="Arial, sans-serif" font-size="140" font-weight="bold" fill="white">Park M</text>
  
  <!-- Registered trademark symbol - White -->
  <circle cx="660" cy="80" r="25" stroke="white" stroke-width="4" fill="none"/>
  <text x="645" y="95" font-family="Arial, sans-serif" font-size="35" font-weight="bold" fill="white">R</text>
</svg>
